<svg xmlns="http://www.w3.org/2000/svg" viewBox="0 0 200 150" fill="none">
  <g stroke="#172536" stroke-width="3" stroke-linecap="round" stroke-linejoin="round">
    <path d="M18 128h164" opacity=".62" />
    <path d="M72 120V48h56v72" stroke-width="8" />
    <path d="M78 108h44M78 91h44M78 74h44M78 57h44" opacity=".55" />
    <path d="m65 121-10-18 17-10m63 28 10-18-17-10" fill="#f5eddc" />
    <path d="M72 62 49 48 35 59m93 3 23-14 14 11M72 82l-27-4-14 11m97-7 27-4 14 11m-97 14-24 10m80-10 24 10" stroke-width="7" />
    <path d="M88 80h24v28H88Z" fill="#e0a243" />
    <path d="m82 77 6 3-6 3m36-6-6 3 6 3" fill="#f5eddc" />
    <path d="m89 47 11-13 11 13" fill="#a9c9e8" />
    <path d="m94 121-3 7m15-7 3 7" />
  </g>
</svg>
