<svg xmlns="http://www.w3.org/2000/svg" viewBox="0 0 200 150" fill="none">
  <g stroke="#172536" stroke-width="3" stroke-linecap="round" stroke-linejoin="round">
    <path d="M18 128h164" opacity=".62" />
    <path d="m57 118 9-58 45-11 31 45-13 31H73Z" fill="#a9c9e8" />
    <path d="m82 56 8-18 17 8-4 8" fill="#f5eddc" />
    <path d="M72 72h48l7 12-9 10H69l-7-11Z" fill="#f5eddc" />
    <path d="M72 96h46l5 12-9 10H68l-5-11Z" fill="#f5eddc" />
    <path d="M88 79h24v31H88Z" fill="#e0a243" />
    <path d="m87 86-16 1m42 0 14-3m-40 17-15 4m41-4 10 6" />
    <path d="m63 78-24-13-15 13 19 11 20-3Z" fill="#f5eddc" />
    <path d="m126 76 25-17 19 10-15 16-27 2Z" fill="#f5eddc" />
    <path d="m41 65 4-13m107 7-3-13" />
    <circle cx="45" cy="48" r="5" fill="#bd6847" />
    <circle cx="148" cy="42" r="5" fill="#bd6847" />
    <path d="m77 122-4 6m48-6 6 6" />
  </g>
</svg>
